# xmcd
#
# Track frame offsets:
#	180
#	9417
#	26020
#	36385
#	50782
#	77125
#	91725
#	105412
#	117357
#	130502
#	144595
#	157492
#	174780
#
# Disc length: 2560 seconds
#
# Revision: 1
# Processed by: cddbd v1.4PL0 Copyright (c) Steve Scherf et al.
# Submitted via: EasyCDDAExtractor 5.0.7
#
DISCID=a409fe0d
DTITLE=The Good Ol' Persons - I Can't Stand To Ramble
DYEAR=1900
DGENRE=Bluegrass
TTITLE0=I Can't Stand to Ramble
TTITLE1=Kissin Comes Easy
TTITLE2=Broken Tie
TTITLE3=Itzbin Reel
TTITLE4=You Don't Miss Your Water
TTITLE5=I Will Arise
TTITLE6=Get Up, Go To Work
TTITLE7=In Dreams
TTITLE8=I'm Satisfied With You
TTITLE9=Not This Time
TTITLE10=China Camp
TTITLE11=Ellie
TTITLE12=Open Up Your Heart
EXTD=
EXTT0=
EXTT1=
EXTT2=
EXTT3=
EXTT4=
EXTT5=
EXTT6=
EXTT7=
EXTT8=
EXTT9=
EXTT10=
EXTT11=
EXTT12=
PLAYORDER=
